Coordinates
version=1
nRows=8
nColumns=36
inDegrees=yes

Units are S.I. units (second, meters, Newtons, ...)
If the header above contains a line with 'inDegrees', this indicates whether rotational values are in degrees (yes) or radians (no).

endheader
time	pelvis_tilt	pelvis_list	pelvis_rotation	pelvis_tx	pelvis_ty	pelvis_tz	hip_flexion_r	hip_adduction_r	hip_rotation_r	knee_angle_r	knee_angle_r_beta	ankle_angle_r	subtalar_angle_r	mtp_angle_r	hip_flexion_l	hip_adduction_l	hip_rotation_l	knee_angle_l	knee_angle_l_beta	ankle_angle_l	subtalar_angle_l	mtp_angle_l	lumbar_extension	lumbar_bending	lumbar_rotation	arm_flex_r	arm_add_r	arm_rot_r	elbow_flex_r	pro_sup_r	arm_flex_l	arm_add_l	arm_rot_l	elbow_flex_l	pro_sup_l
      3.43333330	     -0.63985100	      2.89245328	      1.84785574	     -0.08935996	      1.15909670	     -0.04610484	     28.69895878	    -10.79996129	     -8.57001375	     24.84711650	      0.43366399	    -15.35787115	     -6.97881461	     -7.49999987	     28.20844867	     -5.88634515	    -14.94304747	     31.78038970	      0.55467244	    -13.89549963	      5.71264036	     -7.49999987	    -24.50277251	     -2.34071435	     -5.11939271	    -44.71009585	    -13.73980304	    -36.90398465	     46.82735819	     69.07087132	    -31.24868769	    -20.74886233	    -50.94810509	     41.55348585	     61.63896793
      3.43750000	     -0.46964980	      2.76370605	      2.01886236	     -0.08506026	      1.15109448	     -0.04398306	     28.61563524	    -10.69515692	     -8.67369852	     24.41762438	      0.42616794	    -15.67385469	     -6.94564477	     -7.49999987	     28.30612692	     -6.23903435	    -15.31354934	     31.18544729	      0.54428873	    -13.90915317	      5.57680665	     -7.49999987	    -25.02394722	     -2.23972510	     -5.04281241	    -46.24089685	    -13.80662749	    -37.17618186	     46.05494934	     69.14078897	    -32.57090511	    -21.43720337	    -51.41055148	     41.01925049	     61.59519833
      3.44166670	     -0.85366170	      2.60282662	      1.87199009	     -0.07561646	      1.13983963	     -0.04549925	     29.05995635	    -10.60729705	     -9.13903287	     24.01402849	      0.41912386	    -15.65125528	     -6.23637092	     -7.49999987	     28.83367749	     -6.51798149	    -15.39828780	     30.76267080	      0.53690989	    -13.86155879	      4.93678066	     -7.49999987	    -24.51668653	     -2.13401067	     -4.46418566	    -47.79930477	    -13.89324488	    -38.27193004	     44.33019908	     68.89648062	    -34.01378520	    -21.46083058	    -53.13232267	     40.92021758	     60.90854784
      3.44583330	     -0.86439748	      2.41857633	      1.71029723	     -0.07374361	      1.13537211	     -0.04614826	     29.07190714	    -10.46673513	     -8.95559849	     23.29917031	      0.40664723	    -16.14075240	     -5.85748651	     -7.49999987	     28.94220833	     -6.72211137	    -15.51266573	     29.76403357	      0.51948038	    -14.24562335	      4.77344039	     -7.49999987	    -25.05399870	     -2.09892693	     -4.19853054	    -48.59571029	    -14.17655618	    -38.80809630	     42.53435109	     68.50248340	    -35.09775352	    -21.39757830	    -55.25513547	     41.16489437	     59.68543249
      3.45000000	     -0.79876068	      2.17694790	      1.60506184	     -0.06756190	      1.12793035	     -0.04678493	     28.97577445	    -10.26272701	     -8.95153728	     22.55345917	      0.39363212	    -16.73391625	     -5.75023651	     -7.49999987	     28.77276806	     -6.86717826	    -15.42361470	     28.41520635	      0.49593891	    -14.63284564	      5.07634733	     -7.49999987	    -25.68635906	     -1.75379146	     -3.75050534	    -49.96650462	    -14.45305136	    -38.99644466	     41.43811074	     68.61460397	    -36.25265500	    -21.66896515	    -55.75320911	     40.54678658	     59.58398544
      3.45416670	     -0.70746100	      1.99066962	      1.51921444	     -0.05898230	      1.11175760	     -0.04459429	     29.12106095	    -10.05715791	     -8.84494836	     22.34156054	      0.38993379	    -17.08603053	     -5.54897598	     -7.49999987	     28.98346309	     -7.29377061	    -15.19432260	     28.03491237	      0.48930153	    -14.77958171	      5.11742082	     -7.49999987	    -26.28219271	     -2.09545035	     -3.76584005	    -50.70368920	    -15.50359587	    -36.94386242	     37.39086004	     67.89140688	    -38.35216473	    -20.33343338	    -61.63307677	     42.96168994	     57.45944759
      3.45833330	     -0.54999148	      1.93090012	      1.43421742	     -0.05133990	      1.10042736	     -0.04835870	     29.33907457	    -10.18901084	     -8.71206416	     22.36111243	      0.39027504	    -17.41939064	     -5.33622059	     -7.49999987	     29.06349905	     -7.34568130	    -14.97373829	     27.78345551	      0.48491278	    -14.73834123	      5.09262458	     -7.49999987	    -26.83435989	     -1.82032061	     -3.31183658	    -52.85595832	    -15.58238352	    -37.11928542	     36.53773299	     67.84043627	    -39.81422842	    -20.28823009	    -62.18920749	     42.70890273	     57.37009202
      3.46250000	     -0.63472473	      1.93436694	      1.32792695	     -0.04480965	      1.08705536	     -0.04944399	     29.96107884	    -10.40460336	     -8.50132708	     22.61549434	      0.39471484	    -17.55530338	     -5.02270836	     -7.49999987	     29.59739849	     -7.32494924	    -14.44193711	     27.72577357	      0.48390604	    -14.63769604	      4.30499016	     -7.49999987	    -26.62723444	     -1.90249732	     -2.98210673	    -54.39757665	    -16.57753450	    -34.40833869	     32.77055733	     65.94672056	    -41.56663894	    -18.51113153	    -67.98960866	     45.42464242	     55.81864801
